PathFileType	4	(X/Y/Z)	./resultDataOpenSim/trcMotMarkerGrf/sub10/qtm-03-05.trc
DataRate	CameraRate	NumFrames	NumMarkers	Units	OrigDataRate	OrigDataStartFrame	OrigNumFrames
250.000000	250.000000	13	24	m	250.000000	377	502
Frame#	Time	L.Toe.Tip			R.Toe.Tip			L.Ankle.Lat			R.Ankle.Lat			L.Ankle.Med			R.Ankle.Med			L.Heel			R.Heel			L.Knee.Lat			R.Knee.Lat			L.Knee.Med			R.Knee.Med			L.Thigh.Upper			R.Thigh.Upper			L.ASIS			R.ASIS			V.Sacral			L.Acromium			R.Acromium			C7			L.Elbow			R.Elbow			L.Wrist.Lat			R.Wrist.Lat
		X1	Y1	Z1	X2	Y2	Z2	X3	Y3	Z3	X4	Y4	Z4	X5	Y5	Z5	X6	Y6	Z6	X7	Y7	Z7	X8	Y8	Z8	X9	Y9	Z9	X10	Y10	Z10	X11	Y11	Z11	X12	Y12	Z12	X13	Y13	Z13	X14	Y14	Z14	X15	Y15	Z15	X16	Y16	Z16	X17	Y17	Z17	X18	Y18	Z18	X19	Y19	Z19	X20	Y20	Z20	X21	Y21	Z21	X22	Y22	Z22	X23	Y23	Z23	X24	Y24	Z24

377	1.504	0.69674683	0.083829933	-0.039060567	0.88864231	0.03971062	0.13713957	0.63732086	0.20663767	-0.06545312	0.74810426	0.055035576	0.1813293	0.65944839	0.21199368	0.014760111	0.76402023	0.079523073	0.095870904	0.57322634	0.23144998	-0.019100777	0.69396388	0.029971591	0.13996688	0.90961732	0.47149851	-0.072660593	0.82812816	0.44943836	0.20263534	0.9204958	0.43936918	0.046383066	0.82406374	0.45502743	0.074220121	0.78723041	0.83029375	-0.11184192	0.78990872	0.86484674	0.2647988	0.83659928	0.94973749	-0.051896147	0.85144901	0.95950156	0.19009494	0.64446437	0.95860959	0.078210894	0.78926065	1.4301594	-0.069665325	0.75258784	1.4159087	0.24980237	0.69238009	1.4472583	0.077586922	0.71738639	1.0998573	-0.1607998	0.64944781	1.0715318	0.27133892	0.85501627	0.89730071	-0.143846	0.8129389	0.9070017	0.36075839
378	1.508	0.71353884	0.082866463	-0.038352511	0.88864802	0.039698677	0.13715763	0.65105734	0.20394151	-0.064884196	0.74808663	0.055075568	0.18133455	0.67358832	0.209715	0.015350474	0.76406939	0.079628261	0.095909587	0.58621986	0.22723582	-0.018513091	0.69407799	0.030103448	0.13985282	0.91881607	0.47379331	-0.072175255	0.82907492	0.44947055	0.20309989	0.93005497	0.44179542	0.046528446	0.82466328	0.45510896	0.074336897	0.79415639	0.83188095	-0.11226729	0.79430783	0.86522682	0.26477088	0.84264247	0.95106031	-0.051171358	0.85611177	0.96020282	0.1905277	0.64959641	0.95942541	0.077530293	0.79407593	1.4309481	-0.069524791	0.75750985	1.4169422	0.24990179	0.69743301	1.448095	0.077737421	0.72016464	1.1015566	-0.16127168	0.6554636	1.0717712	0.27343384	0.85515593	0.89706296	-0.14620207	0.82315181	0.90997197	0.36081395
379	1.512	0.73038781	0.081893287	-0.037616784	0.88866109	0.039679996	0.1371736	0.66491531	0.20108577	-0.064316798	0.74833574	0.055005851	0.18117857	0.68746728	0.20735627	0.016004785	0.76415917	0.079697128	0.095917633	0.59926911	0.22282782	-0.017816062	0.69437984	0.030260454	0.13968103	0.92791246	0.47596911	-0.071702569	0.83008904	0.44949747	0.20355328	0.93943386	0.44414247	0.046641742	0.8253471	0.45517641	0.07446841	0.80125694	0.83338455	-0.11246267	0.79874161	0.86558117	0.26474203	0.84867708	0.95230151	-0.050449271	0.86076517	0.96082175	0.19094948	0.65475419	0.96010443	0.076860527	0.79888507	1.4316588	-0.06939301	0.76244643	1.4179012	0.25000294	0.70248195	1.4488589	0.077875241	0.72302257	1.1031306	-0.16149241	0.66145533	1.0718154	0.27569573	0.85531633	0.89684628	-0.14851692	0.83330972	0.91290501	0.36086622
380	1.516	0.74737993	0.080916454	-0.036886304	0.88868561	0.039663168	0.13718992	0.67886415	0.19807509	-0.063707709	0.7486282	0.054921465	0.18099428	0.7012273	0.20492402	0.016691923	0.76423665	0.079736345	0.095923707	0.61250829	0.21820622	-0.017077997	0.69471445	0.030425614	0.13950388	0.93693324	0.47804434	-0.071234304	0.83114363	0.4495177	0.20400122	0.94860106	0.44641401	0.04674093	0.82624768	0.45521861	0.074708369	0.80857187	0.8348113	-0.11246782	0.8031881	0.86590623	0.26471807	0.8546983	0.95345825	-0.049732637	0.86541323	0.96135808	0.19136889	0.6600342	0.96064773	0.076148088	0.80368486	1.4323031	-0.069272899	0.76738983	1.4187843	0.25010481	0.70751929	1.4495469	0.0779998	0.72595251	1.1045576	-0.16149737	0.66747722	1.0717543	0.27805434	0.8555119	0.89663835	-0.15077832	0.84341335	0.91580309	0.36092231
381	1.52	0.76454782	0.079903284	-0.036182911	0.88871304	0.039654017	0.13721314	0.69288804	0.19491631	-0.063035836	0.74880118	0.054889124	0.1808783	0.71483929	0.20242681	0.017412915	0.76428253	0.079794047	0.095950684	0.62603223	0.21336945	-0.016352798	0.69494144	0.030583938	0.139362	0.94586519	0.48003179	-0.070772213	0.83217813	0.44952582	0.20445882	0.95760081	0.44860478	0.046828694	0.82749662	0.45520114	0.075130516	0.81596534	0.83616555	-0.11243919	0.80755569	0.86616576	0.26471323	0.86070413	0.95453265	-0.049027987	0.87005473	0.96181062	0.19179912	0.6654891	0.96107937	0.075309677	0.80848619	1.4328781	-0.069159647	0.77232924	1.4195916	0.25020364	0.712549	1.4501581	0.078119063	0.72890414	1.1058727	-0.16145131	0.67359129	1.0717388	0.28040705	0.85572444	0.89642066	-0.15301127	0.85347811	0.91866667	0.3609829
382	1.524	0.78182676	0.078811684	-0.035506292	0.88873256	0.039647275	0.13724654	0.7070021	0.19162001	-0.062317399	0.74886405	0.054904358	0.18082505	0.72824302	0.19983744	0.018191668	0.76433753	0.079893145	0.095985744	0.63980079	0.20835743	-0.015632195	0.69502256	0.030727218	0.1392587	0.95467874	0.4819361	-0.070322879	0.83315442	0.4495165	0.20493622	0.96655675	0.45070892	0.046934197	0.82912293	0.45507247	0.075728315	0.82321066	0.83744369	-0.1125304	0.81175551	0.86632619	0.26474257	0.86668965	0.95552876	-0.048341755	0.87468489	0.96217574	0.19224838	0.67106672	0.96144265	0.074356722	0.8133025	1.4333706	-0.069050007	0.77726153	1.4203242	0.25029745	0.71758008	1.450693	0.078246006	0.73182627	1.1071387	-0.16151096	0.67985079	1.0718112	0.2826916	0.85592572	0.89618605	-0.15524997	0.86352423	0.92149056	0.36104369
383	1.528	0.79915827	0.077623858	-0.034856642	0.88874768	0.039634176	0.13728326	0.72123229	0.18819735	-0.061577975	0.74887981	0.054943455	0.1807978	0.74157528	0.19710029	0.019025634	0.76442692	0.080011598	0.096008335	0.65373503	0.20322174	-0.014905287	0.69501768	0.030858631	0.13918781	0.963372	0.48375712	-0.069892941	0.8340797	0.44948824	0.20542962	0.97551165	0.45272116	0.04707004	0.83096372	0.45483715	0.076397177	0.83024162	0.83864445	-0.11273666	0.81579509	0.86640021	0.26481049	0.87264922	0.95644363	-0.047675087	0.87929918	0.96244938	0.19271385	0.67666412	0.96176745	0.073377641	0.8181344	1.4337756	-0.068946796	0.78219038	1.4209822	0.25038639	0.72261645	1.451152	0.078383184	0.73470434	1.1083891	-0.16171536	0.68632988	1.0718863	0.2848641	0.85611762	0.89593966	-0.15750339	0.87354814	0.92426578	0.36110907
384	1.532	0.81654967	0.076346572	-0.03423631	0.88877005	0.039606844	0.13731162	0.73559372	0.184656	-0.060829059	0.74886864	0.055001566	0.18078581	0.75511475	0.19419918	0.019876461	0.76453282	0.080122848	0.096017916	0.66782547	0.19798931	-0.014213913	0.69503463	0.030991591	0.13918337	0.971964	0.48549119	-0.069490137	0.8349894	0.4494422	0.20592349	0.98440771	0.45463671	0.047225798	0.83278944	0.45456312	0.077020209	0.83714286	0.83976969	-0.11293385	0.81974787	0.86642679	0.26491401	0.87860099	0.95726378	-0.047019353	0.88389618	0.96262928	0.19318815	0.68225872	0.96203502	0.072393008	0.82297349	1.4340999	-0.06885048	0.78711705	1.4215619	0.25047212	0.72765524	1.4515331	0.078519273	0.73755756	1.1096116	-0.16200077	0.69307523	1.0718757	0.28688943	0.85633601	0.89568689	-0.15974158	0.88352455	0.92698673	0.36119207
385	1.536	0.8340509	0.075004116	-0.033636501	0.88880343	0.039559149	0.13732538	0.75008698	0.18100227	-0.060067669	0.7488041	0.055090067	0.18080485	0.76898721	0.19119237	0.020736707	0.76462806	0.080223229	0.096032399	0.6820839	0.19266344	-0.013598446	0.69517621	0.031117605	0.13930759	0.9804627	0.48712792	-0.069123368	0.8359266	0.44937888	0.20640037	0.99328907	0.45644996	0.047445789	0.83450055	0.45430583	0.07755814	0.84401032	0.84081993	-0.11303117	0.82366493	0.86642913	0.26504938	0.88459908	0.95797751	-0.046364729	0.88847795	0.96271637	0.19367048	0.68791367	0.96221539	0.071325901	0.82781378	1.4343499	-0.068761482	0.79203991	1.4220589	0.25055718	0.73269231	1.4518328	0.078647219	0.74040683	1.1107783	-0.16229893	0.7000345	1.0717631	0.28877627	0.85660807	0.89542985	-0.16193518	0.89344262	0.92965656	0.36129645
386	1.54	0.85169632	0.073646312	-0.033033989	0.88884423	0.039497838	0.13732804	0.76470596	0.17724626	-0.059289763	0.74868019	0.055207041	0.18085748	0.78311415	0.18815256	0.021648411	0.76470583	0.080328011	0.096070387	0.69646609	0.18723532	-0.01301159	0.69547396	0.031188122	0.13955451	0.98886149	0.4886485	-0.068798928	0.83691963	0.44930122	0.20685391	1.0024915	0.45814566	0.047876968	0.83614094	0.4540712	0.078042214	0.85094657	0.84179644	-0.11303318	0.82755096	0.86640748	0.26520636	0.89068159	0.95859019	-0.045714117	0.89304751	0.96271594	0.19416752	0.69364041	0.9623427	0.070147482	0.83265516	1.4345258	-0.068684346	0.79696187	1.4224726	0.2506442	0.73772894	1.4520507	0.078775221	0.74325901	1.1118717	-0.16258228	0.70710256	1.0715719	0.29057902	0.85692155	0.89516957	-0.16409439	0.90331872	0.93228361	0.36141161
387	1.544	0.86946369	0.072338758	-0.032408582	0.88888901	0.0394439	0.13732927	0.77944661	0.17340187	-0.058498858	0.74858439	0.055310014	0.18089195	0.79742622	0.18507877	0.022622954	0.76477947	0.080454164	0.096123081	0.71092073	0.18169008	-0.012344841	0.6958406	0.03117668	0.13979705	0.9971609	0.49003263	-0.068519119	0.83797437	0.44921709	0.20729176	1.0125345	0.4596919	0.048652944	0.83777396	0.45385078	0.078505838	0.8580483	0.84270084	-0.11301082	0.83139758	0.86635008	0.26536949	0.89680108	0.9591189	-0.045071672	0.89760575	0.96263617	0.19468632	0.69933362	0.96249635	0.068965694	0.83750134	1.4346249	-0.068619582	0.80188906	1.4228032	0.25073455	0.74277277	1.4521924	0.078912132	0.74611333	1.1128871	-0.1628489	0.71422202	1.0713196	0.29236139	0.85724156	0.89490796	-0.16624465	0.91317509	0.93486982	0.36152561
388	1.548	0.8872955	0.071122409	-0.031765548	0.88893421	0.039411941	0.1373376	0.79430955	0.16948332	-0.057698226	0.74862839	0.055349962	0.18084301	0.81194762	0.18188713	0.023603522	0.76484006	0.080599253	0.096142624	0.72548662	0.17601771	-0.01154962	0.69612071	0.031140743	0.13988125	1.0053713	0.49126949	-0.068281884	0.83908463	0.44912765	0.20772357	1.0235696	0.46105646	0.049652716	0.83939335	0.45366007	0.078934774	0.86530376	0.8435282	-0.1130246	0.83522764	0.86624037	0.26553307	0.90285681	0.95957213	-0.044425381	0.90215056	0.96248369	0.19522866	0.70487888	0.96270532	0.067933359	0.84235719	1.4346466	-0.068561806	0.80682482	1.4230473	0.25082587	0.74782981	1.4522613	0.07905297	0.74896848	1.1138271	-0.16310436	0.72141973	1.0710086	0.29417343	0.85754652	0.89464829	-0.16838896	0.92302664	0.93740318	0.3616329
389	1.552	0.905145	0.069987865	-0.031127333	0.88897538	0.039397427	0.13735556	0.80929917	0.16550193	-0.056884016	0.74879516	0.055336484	0.18072056	0.82670182	0.17850084	0.024539852	0.76484866	0.080737839	0.096088546	0.74025112	0.17022381	-0.010666061	0.69621628	0.031163242	0.13975527	1.0134868	0.49236071	-0.068075038	0.84024033	0.44902091	0.20815206	1.034928	0.46224812	0.050517227	0.84095867	0.45351938	0.079302167	0.87255958	0.84426279	-0.11306526	0.83910372	0.86604706	0.2657116	0.90881372	0.95994373	-0.043764852	0.9066786	0.96226155	0.19579105	0.71026967	0.96291032	0.067140156	0.84722739	1.434591	-0.068506508	0.8117738	1.4232055	0.25091287	0.75289735	1.4522502	0.079186802	0.75182479	1.1146962	-0.16335258	0.72878338	1.0706291	0.29604958	0.8578542	0.8943922	-0.17052066	0.93288459	0.93986267	0.36173268
